# xmcd CD database file
#
# Track frame offsets:
#	150
#	13050
#	29700
#	44550
#	61500
#	92550
#	116925
#	133050
#	154875
#	175950
#	198825
#
# Disc length: 2944 seconds
#
# Revision: 0
# Processed by: cddbd v1.5.2PL0 Copyright (c) Steve Scherf et al.
# Submitted via: CDex 1.51
#
DISCID=970b7e0b
DTITLE=Sofia Bridge - Dyshat'
DYEAR=2014
DGENRE=
TTITLE0=Intro
TTITLE1=Zagadki
TTITLE2=Dozhdi
TTITLE3=Junost'
TTITLE4=More
TTITLE5=Tajna
TTITLE6=Otli4ija
TTITLE7=Beg
TTITLE8=S4ast'e
TTITLE9=Prizraki
TTITLE10=Bridge
EXTD=YEAR: 2014
EXTT0=
EXTT1=
EXTT2=
EXTT3=
EXTT4=
EXTT5=
EXTT6=
EXTT7=
EXTT8=
EXTT9=
EXTT10=
PLAYORDER=
